<svg xmlns="http://www.w3.org/2000/svg" xmlns:xlink="http://www.w3.org/1999/xlink" version="1.1" x="0px" y="0px" width="100px" height="100px" viewBox="0 0 100 100" enable-background="new 0 0 100 100" xml:space="preserve">
<g id="Captions">
</g>
<g id="Your_Icon">
	<path fill="#000000" d="M50.673,98h-1.346H31.841c2.464,0,2.69,2,2.69,2h14.796h1.346h14.796c0,0,0.227-2,2.69-2H50.673z"/>
	<path fill="#000000" d="M49.327,5h1.346h17.486c-2.465,0-2.69-5-2.69-5H50.673h-1.346H34.531c0,0-0.228,5-2.69,5H49.327z"/>
	<path fill="#000000" d="M32,6v91h36V6H32z M56.642,55.621L38.865,70.548l10.769-14.074L38.865,46.1L47.069,31h14.357L49.12,46.302   L56.642,55.621z"/>
</g>
</svg>